HIERARCHY
ROOT Hips
{
    OFFSET 0.000000 0.000000 0.000000
    CHANNELS 6 Xposition Yposition Zposition Zrotation Xrotation Yrotation
    JOINT Spine
    {
        OFFSET -0.000000 7.236184 0.000000
        CHANNELS 3 Zrotation Xrotation Yrotation
        JOINT Spine1
        {
            OFFSET -0.000000 20.420147 0.000000
            CHANNELS 3 Zrotation Xrotation Yrotation
            JOINT Neck
            {
                OFFSET -0.000000 20.336288 1.848754
                CHANNELS 3 Zrotation Xrotation Yrotation
                JOINT Head
                {
                    OFFSET -0.000000 12.354461 -1.764923
                    CHANNELS 3 Zrotation Xrotation Yrotation
                    End Site
                    {
                        OFFSET -0.000000 22.061537 0.000000
                    }
                }
            }
            JOINT LeftShoulder
            {
                OFFSET 3.573296 18.396038 -0.314103
                CHANNELS 3 Zrotation Xrotation Yrotation
                JOINT LeftArm
                {
                    OFFSET 10.880760 0.000000 0.000000
                    CHANNELS 3 Zrotation Xrotation Yrotation
                    JOINT LeftForeArm
                    {
                        OFFSET 27.185530 0.000000 0.000000
                        CHANNELS 3 Zrotation Xrotation Yrotation
                        JOINT LeftHand
                        {
                            OFFSET 27.825975 0.000000 0.000000
                            CHANNELS 3 Zrotation Xrotation Yrotation
                            End Site
                            {
                                OFFSET 13.236923 0.000000 0.000000
                            }
                        }
                    }
                }
            }
            JOINT RightShoulder
            {
                OFFSET -3.474926 18.396038 -0.314103
                CHANNELS 3 Zrotation Xrotation Yrotation
                JOINT RightArm
                {
                    OFFSET -10.880760 0.000000 0.000000
                    CHANNELS 3 Zrotation Xrotation Yrotation
                    JOINT RightForeArm
                    {
                        OFFSET -27.185530 0.000000 0.000000
                        CHANNELS 3 Zrotation Xrotation Yrotation
                        JOINT RightHand
                        {
                            OFFSET -27.825975 0.000000 0.000000
                            CHANNELS 3 Zrotation Xrotation Yrotation
                            End Site
                            {
                                OFFSET -13.236923 0.000000 0.000000
                            }
                        }
                    }
                }
            }
        }
    }
    JOINT LeftUpLeg
    {
        OFFSET 8.824615 0.000000 0.000000
        CHANNELS 3 Zrotation Xrotation Yrotation
        JOINT LeftLeg
        {
            OFFSET -0.000000 -35.111282 0.000000
            CHANNELS 3 Zrotation Xrotation Yrotation
            JOINT LeftFoot
            {
                OFFSET -0.000000 -42.324711 0.000000
                CHANNELS 3 Zrotation Xrotation Yrotation
                JOINT LeftToeBase
                {
                    OFFSET -0.000000 -5.735999 13.236923
                    CHANNELS 3 Zrotation Xrotation Yrotation
                    End Site
                    {
                        OFFSET -0.000000 0.000000 3.529846
                    }
                }
            }
        }
    }
    JOINT RightUpLeg
    {
        OFFSET -8.824615 0.000000 0.000000
        CHANNELS 3 Zrotation Xrotation Yrotation
        JOINT RightLeg
        {
            OFFSET -0.000000 -35.111282 0.000000
            CHANNELS 3 Zrotation Xrotation Yrotation
            JOINT RightFoot
            {
                OFFSET -0.000000 -42.324711 0.000000
                CHANNELS 3 Zrotation Xrotation Yrotation
                JOINT RightToeBase
                {
                    OFFSET -0.000000 -5.735999 13.236923
                    CHANNELS 3 Zrotation Xrotation Yrotation
                    End Site
                    {
                        OFFSET -0.000000 0.000000 3.529846
                    }
                }
            }
        }
    }
}
MOTION
Frames:    11
Frame Time:    0.008333
-6.436875    80.811111    95.595947    0.840885    -3.837549    -178.690872    -1.828474    -14.365993    0.757098    -1.314621    6.894611    1.066787    3.796994    17.656742    -30.365248    12.144217    -21.230854    -27.787493    0.837992    17.893444    -3.124384    -44.357140    46.998154    -38.572186    -3.277255    -3.928957    -16.631495    17.362814    -4.014911    2.574157    6.673103    19.631571    -3.714913    37.356667    47.351418    43.349785    0.764028    -5.028015    16.737579    -15.283282    -4.633090    -3.790319    1.675638    -1.010276    -0.715847    -3.943598    6.302394    0.290059    2.591828    -8.475562    -4.976892    -0.592032    0.451429    0.655716    -5.664237    -2.852269    1.900515    2.554771    9.835917    5.227612    0.610065    -8.980539    -10.458614    -0.004458    -0.327051    0.004824    
-6.378175    80.815903    95.602547    0.838455    -3.844519    -178.696915    -1.829369    -14.362116    0.752628    -1.311038    6.887112    1.062031    3.800460    17.644850    -30.366058    12.167838    -21.235846    -27.780998    0.841842    17.900806    -3.122646    -44.348923    46.996540    -38.584614    -3.278732    -3.929051    -16.630280    17.373371    -4.014532    2.576864    6.675588    19.634884    -3.711861    37.348942    47.350571    43.354916    0.768243    -5.026862    16.735315    -15.287561    -4.632571    -3.788833    1.709924    -1.023090    -0.707131    -3.933731    6.302229    0.301140    2.557613    -8.468901    -4.986465    -0.603141    0.431714    0.668042    -5.630730    -2.833355    1.929527    2.565724    9.792413    5.412181    0.496579    -8.967418    -10.677508    -0.008683    -0.296916    0.009395    
-6.318612    80.820641    95.608818    0.836144    -3.850638    -178.701950    -1.829786    -14.358233    0.748599    -1.306975    6.880465    1.057670    3.801407    17.634121    -30.363974    12.190254    -21.238621    -27.772024    0.844886    17.907824    -3.120486    -44.339989    46.994720    -38.597126    -3.279933    -3.929099    -16.629450    17.382784    -4.014029    2.580123    6.677892    19.638252    -3.708649    37.339573    47.351021    43.361099    0.771920    -5.025968    16.732588    -15.291981    -4.632180    -3.787882    1.744887    -1.035049    -0.697915    -3.923648    6.302333    0.310525    2.523183    -8.462132    -4.995654    -0.616554    0.409225    0.682927    -5.597845    -2.811747    1.961909    2.579533    9.748057    5.615319    0.372599    -8.954399    -10.920304    -0.015546    -0.260923    0.016820    
-6.258196    80.825363    95.614822    0.833959    -3.856145    -178.705948    -1.829800    -14.354568    0.745001    -1.302312    6.874850    1.053620    3.799955    17.624451    -30.359049    12.211327    -21.239679    -27.760647    0.847226    17.914280    -3.118034    -44.330574    46.992523    -38.609608    -3.281327    -3.928953    -16.629038    17.391052    -4.013229    2.584304    6.679665    19.641466    -3.705667    37.329010    47.351799    43.368366    0.776276    -5.024556    16.729609    -15.297472    -4.631265    -3.787415    1.780497    -1.046470    -0.688085    -3.913261    6.302846    0.318684    2.488731    -8.455389    -5.005013    -0.632428    0.383696    0.700541    -5.565785    -2.787936    1.998344    2.596722    9.702616    5.830424    0.241031    -8.940959    -11.180788    -0.024705    -0.220037    0.026728    
-6.197295    80.830017    95.620499    0.831953    -3.860820    -178.708939    -1.829368    -14.350967    0.741746    -1.297172    6.870350    1.049964    3.796013    17.616009    -30.351490    12.231457    -21.238960    -27.746996    0.848668    17.919718    -3.115634    -44.321709    46.990204    -38.620762    -3.282416    -3.928608    -16.628803    17.398186    -4.012129    2.589301    6.681307    19.644352    -3.702920    37.318283    47.351891    43.375843    0.781862    -5.022077    16.726149    -15.304647    -4.629416    -3.786826    1.816724    -1.056950    -0.677872    -3.902937    6.303411    0.325540    2.454364    -8.448518    -5.014261    -0.650556    0.354941    0.720658    -5.534861    -2.762041    2.039171    2.617581    9.656153    6.049579    0.102428    -8.926573    -11.451418    -0.035817    -0.174431    0.038748    
-6.135666    80.834602    95.625999    0.829959    -3.864950    -178.711105    -1.828566    -14.347527    0.738878    -1.291752    6.866837    1.046616    3.789588    17.608561    -30.341299    12.251007    -21.236134    -27.730927    0.849419    17.924129    -3.113179    -44.313679    46.987465    -38.630379    -3.283640    -3.927977    -16.628757    17.404413    -4.010672    2.594927    6.682832    19.647266    -3.700751    37.307220    47.350494    43.383957    0.789167    -5.018185    16.722513    -15.313736    -4.626400    -3.785892    1.853338    -1.066974    -0.666884    -3.892184    6.304251    0.331791    2.419798    -8.441554    -5.024280    -0.670468    0.323041    0.742758    -5.505444    -2.734565    2.085206    2.642938    9.608158    6.265617    -0.040395    -8.910614    -11.725387    -0.048392    -0.124762    0.052349    
-6.073402    80.839111    95.631447    0.827646    -3.869119    -178.712631    -1.827671    -14.344661    0.736306    -1.286081    6.864329    1.043514    3.780555    17.601961    -30.328325    12.270122    -21.231276    -27.712313    0.849527    17.927629    -3.110569    -44.306431    46.984734    -38.638840    -3.284562    -3.927470    -16.628778    17.409592    -4.009221    2.601083    6.683996    19.649694    -3.698925    37.296440    47.347893    43.392239    0.798058    -5.013012    16.718882    -15.325127    -4.622272    -3.784621    1.889803    -1.077272    -0.655227    -3.880809    6.305370    0.338027    2.384720    -8.434357    -5.035429    -0.690756    0.289036    0.765280    -5.478178    -2.706526    2.137004    2.673368    9.558463    6.469007    -0.185167    -8.892555    -11.993459    -0.061990    -0.072587    0.067054    
-6.010528    80.843513    95.636925    0.824709    -3.873484    -178.713501    -1.826870    -14.342165    0.734013    -1.280571    6.862232    1.040697    3.769366    17.596468    -30.312565    12.288920    -21.224472    -27.691032    0.849234    17.930573    -3.108307    -44.300720    46.981277    -38.645508    -3.285373    -3.926890    -16.628542    17.413725    -4.007737    2.607141    6.685248    19.651945    -3.697505    37.285736    47.344711    43.400589    0.807535    -5.007071    16.715437    -15.338757    -4.617450    -3.783013    1.925706    -1.088041    -0.643226    -3.868663    6.306740    0.345411    2.348877    -8.426932    -5.048568    -0.709121    0.255106    0.785674    -5.453787    -2.678359    2.195101    2.709852    9.506761    6.652793    -0.328079    -8.872200    -12.248782    -0.076258    -0.018968    0.082481    
-5.947285    80.847839    95.642426    0.821355    -3.877893    -178.713684    -1.825924    -14.340096    0.731828    -1.275465    6.860873    1.038059    3.756026    17.591856    -30.293810    12.307552    -21.215580    -27.666901    0.848847    17.933493    -3.105878    -44.295361    46.977615    -38.651894    -3.285864    -3.926550    -16.628067    17.417095    -4.006445    2.613224    6.686630    19.653820    -3.696496    37.274799    47.341503    43.409241    0.817136    -5.000617    16.712358    -15.354790    -4.612078    -3.781336    1.961057    -1.099051    -0.630989    -3.855678    6.308185    0.354518    2.312171    -8.419316    -5.064291    -0.722770    0.223176    0.800843    -5.432032    -2.650263    2.259236    2.752012    9.453444    6.812465    -0.467190    -8.849807    -12.486383    -0.090911    0.034643    0.098322    
-5.883596    80.852112    95.647911    0.817558    -3.882129    -178.713135    -1.824910    -14.338024    0.729695    -1.270771    6.859886    1.035414    3.740642    17.588428    -30.272030    12.326122    -21.204735    -27.639759    0.848224    17.936480    -3.103482    -44.290756    46.973499    -38.657505    -3.286302    -3.926325    -16.627211    17.419907    -4.005286    2.619162    6.688061    19.655199    -3.695422    37.264320    47.338955    43.417412    0.826102    -4.994084    16.709694    -15.373145    -4.606405    -3.779931    1.995973    -1.109940    -0.618818    -3.842054    6.309323    0.366092    2.274360    -8.411361    -5.083193    -0.729959    0.195490    0.808848    -5.412772    -2.622240    2.329320    2.799767    9.398748    6.947322    -0.598338    -8.826080    -12.704806    -0.105678    0.086700    0.114285    
-5.819053    80.856384    95.653336    0.813794    -3.885769    -178.711655    -1.823456    -14.335667    0.727410    -1.266408    6.859425    1.032663    3.723044    17.586069    -30.246973    12.344864    -21.191822    -27.609369    0.847430    17.939751    -3.100883    -44.285847    46.969566    -38.663330    -3.286511    -3.926463    -16.626062    17.421997    -4.004445    2.625290    6.689558    19.656389    -3.694432    37.254017    47.336540    43.425537    0.834706    -4.987422    16.707367    -15.392969    -4.600495    -3.778572    2.031249    -1.120239    -0.606476    -3.827753    6.310059    0.380532    2.235300    -8.403163    -5.106078    -0.729970    0.173191    0.808892    -5.394741    -2.593937    2.404596    2.852051    9.343195    7.059526    -0.719862    -8.801877    -12.905143    -0.120404    0.135094    0.130202    
